<svg xmlns="http://www.w3.org/2000/svg" viewBox="0 0 26.461 5.861"><path fill="#1E90FF" d="M15.494.018v1.944a1.539 1.539-45 0 0-.444-.339 1.343 1.343-45 0 0-.512-.138 1.236 1.236-45 0 0-1.008.38c-.277.28-.415.653-.415 1.121 0 .452.143.84.429 1.164.285.322.624.497 1.016.523.175.012.336-.004.485-.057.15-.053.3-.146.449-.277v.321l.757.052V.399zM1.1.566C.814.546.576.615.39.773a.75.75-45 0 0-.276.596c0 .371.244.695.734.976l.257.147c.222.126.332.248.332.364 0 .064-.031.118-.092.162a.36.36-45 0 1-.242.056.762.762-45 0 1-.32-.116 1.24 1.24-45 0 1-.313-.276l-.468.478c.264.364.616.56 1.059.59.332.024.597-.048.793-.215a.81.81 0 0 0 .299-.654.93.93 0 0 0-.164-.542c-.11-.157-.311-.318-.604-.483l-.28-.16a1.052 1.052 0 0 1-.228-.153.187.187 45 0 1-.045-.118.147.147 45 0 1 .072-.129.308.308-45 0 1 .201-.042c.156.01.33.117.521.32l.47-.437a1.339 1.339-45 0 0-.442-.401A1.271 1.271-45 0 0 1.1.566zm3.075.21a1.428 1.428-45 0 0-1.05.34c-.347.292-.52.675-.52 1.149 0 .441.152.83.458 1.16.309.33.68.51 1.115.54.295.02.566-.033.81-.155a1.393 1.393-45 0 0 .58-.546 1.505 1.505-45 0 0 .215-.787c0-.285-.07-.553-.212-.808a1.712 1.712-45 0 0-.59-.623 1.691 1.691-45 0 0-.806-.27zm2.226.23V2.27c0 .484.031.822.09 1.01.084.272.227.487.431.65.206.162.476.256.808.278.307.021.559-.024.758-.136.198-.114.35-.289.453-.52.083-.189.123-.548.123-1.078V1.19l-.763-.052v1.484c0 .288-.016.474-.047.56a.483.483-45 0 1-.197.252.534.534-45 0 1-.322.067.563.563-45 0 1-.32-.113.567.567-45 0 1-.185-.268c-.04-.115-.06-.314-.06-.598V1.06zm3.428.236v3.03l.757.053V3.107c0-.316.011-.521.033-.614a.758.758 0 0 1 .229-.41.532.532-45 0 1 .399-.129.493.493 0 0 1 .298.115.519.519 0 0 1 .17.281c.033.122.05.363.05.725v1.33l.752.051V2.453c0-.35-.089-.62-.265-.81a1.12 1.12-45 0 0-.766-.366 1.101 1.101-45 0 0-.432.056c-.14.047-.295.137-.468.27v-.31zm-5.641.25c.24.016.439.112.593.286a.93.93 0 0 1 .234.649c0 .26-.079.466-.237.62a.742.742 0 0 1-.595.207.84.84-45 0 1-.59-.284.953.953 0 0 1-.231-.656c0-.257.077-.461.234-.614a.739.739 0 0 1 .592-.208zm10.504.705a.86.86 0 0 1 .6.287.944.944 0 0 1 .238.657c0 .27-.08.482-.238.638a.744.744 0 0 1-.597.207.836.836-45 0 1-.588-.293.97.97-45 0 1-.236-.663c0-.26.077-.466.234-.62a.723.723 0 0 1 .588-.213z"/><path fill="#1F8" d="M16.94.746v4.011l.76.053V1.127zm2.875 1.099c-.45-.03-.824.097-1.123.383-.297.284-.445.659-.445 1.121 0 .451.15.837.448 1.158.299.32.687.495 1.162.528a1.75 1.75 0 0 0 .795-.106c.223-.095.413-.25.573-.465l-.64-.345a.952.952-45 0 1-.733.248.956.956 0 0 1-.588-.23.893.893-45 0 1-.282-.535l2.443.167.004-.145c0-.502-.15-.915-.449-1.24-.299-.327-.687-.506-1.165-.54zm3.085.212c-.288-.02-.525.048-.712.206a.747.747-45 0 0-.274.596c0 .37.245.696.735.977l.256.147c.221.126.332.246.332.363 0 .063-.031.12-.092.163a.36.36-45 0 1-.243.056.762.762-45 0 1-.32-.117 1.236 1.236-45 0 1-.311-.275l-.47.478c.264.364.618.56 1.06.59.333.023.597-.05.793-.216a.813.813 0 0 0 .299-.654.924.924-45 0 0-.164-.54c-.11-.158-.311-.32-.605-.485l-.279-.158a1.005 1.005 0 0 1-.228-.156.183.183 45 0 1-.046-.116.147.147 45 0 1 .073-.129.308.308-45 0 1 .201-.042c.156.01.33.117.521.32l.472-.439a1.339 1.339-45 0 0-.443-.401 1.276 1.276-45 0 0-.555-.168zm2.51.17c-.288-.019-.525.05-.711.209a.747.747-45 0 0-.275.595c0 .37.245.696.735.977l.257.145c.22.126.33.248.33.365 0 .063-.03.117-.09.161a.36.36-45 0 1-.243.056.762.762-45 0 1-.32-.116 1.236 1.236-45 0 1-.313-.274l-.468.476c.264.365.616.56 1.058.591.333.023.598-.049.795-.216a.81.81 0 0 0 .298-.653.924.924-45 0 0-.164-.54c-.11-.158-.311-.32-.605-.486l-.278-.159a1.015 1.015 0 0 1-.229-.154.183.183 45 0 1-.045-.116.15.15 0 0 1 .073-.13.308.308-45 0 1 .2-.042c.157.01.33.119.522.321l.47-.439a1.339 1.339-45 0 0-.443-.4 1.271 1.271-45 0 0-.554-.17zm-5.558.265a.914.914 0 0 1 .513.194c.148.116.247.26.298.432l-1.647-.113c.086-.182.177-.306.278-.374a.862.862 0 0 1 .558-.14z"/><path fill="#FC8" d="M0 4.095v1.767h.463V4.125zm.705.046v1.72h.463v-1.69zm.7.047v1.674h.463V4.218zm.705.047v1.627h.464V4.265zm.7.046v1.58h.464v-1.55zm.705.046v1.535h.463V4.358zm.7.047v1.488h.463V4.404zm.706.046v1.442h.463V4.45zm.7.047v1.395h.463V4.497zm.704.046v1.349h.464V4.543zm.7.045v1.304h.464V4.59zm.705.047v1.257h.465V4.636zm.7.047v1.21h.465V4.683zm.705.046v1.164H9.6V4.729zm.7.046v1.118h.464V4.776zm.705.047v1.07h.464V4.823zm.7.046v1.025h.463v-.995zm.706.047v.978h.463v-.947zm.7.046v.932h.464V4.96zm.704.047v.885h.464v-.855zm.7.046v.839h.464v-.809zm.706.047v.792h.464V5.1zm.7.046v.746h.464v-.716zm.705.047v.699h.463v-.67zm.7.046v.653h.463v-.623zm.704.047v.606h.465v-.576zm.7.046v.56h.465v-.53zm.706.047v.513h.464v-.483zm.7.045v.468h.464v-.437zm.705.046v.422h.463v-.39zm.7.047v.375h.463v-.344zm.706.046v.329h.463v-.297zm.7.047v.282h.463v-.25zm.704.046v.236h.463v-.204zm.7.047v.189h.464v-.158zm.706.046v.143h.463V5.75zm.7.047v.096h.463v-.066zm.705.046v.05h.463v-.02z"/></svg>